<svg xmlns="http://www.w3.org/2000/svg" viewBox="0 0 512 512" style="height:512px;width:512px;">
 <g fill="#fff" fill-opacity="1">
  <polygon points="256,28 230,180 282,180"/>
  <polygon points="256,28 230,180 282,180" transform="rotate(45 256 256)"/>
  <polygon points="256,28 230,180 282,180" transform="rotate(90 256 256)"/>
  <polygon points="256,28 230,180 282,180" transform="rotate(135 256 256)"/>
  <polygon points="256,28 230,180 282,180" transform="rotate(180 256 256)"/>
  <polygon points="256,28 230,180 282,180" transform="rotate(225 256 256)"/>
  <polygon points="256,28 230,180 282,180" transform="rotate(270 256 256)"/>
  <polygon points="256,28 230,180 282,180" transform="rotate(315 256 256)"/>
  <circle cx="256" cy="256" r="70"/>
 </g>
</svg>
