<?xml version="1.0" encoding="UTF-8" standalone="no"?>
<!DOCTYPE svg PUBLIC "-//W3C//DTD SVG 1.1//EN" "http://www.w3.org/Graphics/SVG/1.1/DTD/svg11.dtd">
<svg width="100%" height="100%" viewBox="0 0 24 24" version="1.1" xmlns="http://www.w3.org/2000/svg" xmlns:xlink="http://www.w3.org/1999/xlink" xml:space="preserve" xmlns:serif="http://www.serif.com/" style="fill-rule:evenodd;clip-rule:evenodd;stroke-linecap:round;">
    <path d="M8.5,14C8.5,12.08 10.08,10.5 12,10.5C13.92,10.5 15.5,12.08 15.5,14" style="fill:none;fill-rule:nonzero;stroke:white;stroke-width:1.3px;"/>
    <path d="M3,14L7.5,14" style="fill:none;fill-rule:nonzero;stroke:white;stroke-width:1.3px;"/>
    <path d="M16.5,14L21,14" style="fill:none;fill-rule:nonzero;stroke:white;stroke-width:1.3px;"/>
    <path d="M3,17L21,17" style="fill:none;fill-rule:nonzero;stroke:white;stroke-width:1.3px;"/>
    <path d="M4.5,19.5L19.5,19.5" style="fill:none;fill-rule:nonzero;stroke:white;stroke-width:1.3px;"/>
    <path d="M12,9L12,4.5" style="fill:none;fill-rule:nonzero;stroke:white;stroke-width:1.3px;"/>
    <path d="M9.9,9.5L8.4,5.3" style="fill:none;fill-rule:nonzero;stroke:white;stroke-width:1.3px;"/>
    <path d="M14.1,9.5L15.6,5.3" style="fill:none;fill-rule:nonzero;stroke:white;stroke-width:1.3px;"/>
    <path d="M8.1,10.7L5,7.6" style="fill:none;fill-rule:nonzero;stroke:white;stroke-width:1.3px;"/>
    <path d="M15.9,10.7L19,7.6" style="fill:none;fill-rule:nonzero;stroke:white;stroke-width:1.3px;"/>
    <path d="M7,12.4L3.5,11" style="fill:none;fill-rule:nonzero;stroke:white;stroke-width:1.3px;"/>
    <path d="M17,12.4L20.5,11" style="fill:none;fill-rule:nonzero;stroke:white;stroke-width:1.3px;"/>
</svg>
